<svg xmlns="http://www.w3.org/2000/svg" viewBox="0 0 24 24" fill="currentColor"><path d="M20.447 20.452h-3.554v-5.569c0-1.328-.475-2.236-1.986-2.236-1.081 0-1.722.731-2.004 1.438-.103.25-.129.599-.129.948v5.419h-3.554s.005-8.789 0-9.692h3.554v1.371c.474-.731 1.322-1.772 3.21-1.772 2.344 0 4.103 1.532 4.103 4.825v5.268zM5.337 8.855c-1.144 0-1.915-.761-1.915-1.712 0-.951.77-1.71 1.957-1.71 1.187 0 1.914.759 1.938 1.71 0 .951-.751 1.712-1.98 1.712zm1.581 11.597H3.715V8.816h3.203v11.636zM22.225 0H1.771C.792 0 0 .774 0 1.729v20.542C0 23.227.792 24 1.771 24h20.451C23.2 24 24 23.227 24 22.271V1.729C24 .774 23.2 0 22.222 0h.003z"/></svg>